<mxfile host="65bd71144e">
    <diagram id="eHImCmR8cujmYrpbJqKV" name="Page-1">
        <mxGraphModel dx="1098" dy="790" grid="1" gridSize="10" guides="1" tooltips="1" connect="1" arrows="1" fold="1" page="1" pageScale="1" pageWidth="850" pageHeight="1100" math="0" shadow="0">
            <root>
                <mxCell id="0"/>
                <mxCell id="1" parent="0"/>
                <mxCell id="CQ0YHz5qeJ9onZeh1d_j-3" value="&lt;div&gt;Livreur à domicile&lt;/div&gt;" style="shape=umlActor;verticalLabelPosition=bottom;verticalAlign=top;html=1;" parent="1" vertex="1">
                    <mxGeometry x="80" y="400" width="40" height="80" as="geometry"/>
                </mxCell>
                <mxCell id="CQ0YHz5qeJ9onZeh1d_j-4" value="&lt;div&gt;Reçoit une mission&lt;/div&gt;" style="ellipse;whiteSpace=wrap;html=1;fontFamily=Helvetica;fontSize=12;" parent="1" vertex="1">
                    <mxGeometry x="240" y="400" width="160" height="80" as="geometry"/>
                </mxCell>
                <mxCell id="CQ0YHz5qeJ9onZeh1d_j-5" value="Livre la commande" style="ellipse;whiteSpace=wrap;html=1;" parent="1" vertex="1">
                    <mxGeometry x="480" y="400" width="160" height="80" as="geometry"/>
                </mxCell>
                <mxCell id="CQ0YHz5qeJ9onZeh1d_j-7" value="" style="endArrow=open;endFill=1;endSize=12;html=1;rounded=0;entryX=-0.011;entryY=0.497;entryDx=0;entryDy=0;entryPerimeter=0;" parent="1" source="CQ0YHz5qeJ9onZeh1d_j-4" target="CQ0YHz5qeJ9onZeh1d_j-5" edge="1">
                    <mxGeometry width="160" relative="1" as="geometry">
                        <mxPoint x="319.4974746830585" y="499.748737341529" as="sourcePoint"/>
                        <mxPoint x="368.4000000000001" y="537.99" as="targetPoint"/>
                    </mxGeometry>
                </mxCell>
                <mxCell id="imNkw7YES2fSMCj-qWhb-1" value="Client" style="shape=umlActor;verticalLabelPosition=bottom;verticalAlign=top;html=1;" parent="1" vertex="1">
                    <mxGeometry x="760" y="400" width="40" height="80" as="geometry"/>
                </mxCell>
                <mxCell id="imNkw7YES2fSMCj-qWhb-2" value="Reçoit mise à jour livraison" style="ellipse;whiteSpace=wrap;html=1;" parent="1" vertex="1">
                    <mxGeometry x="480" y="560" width="160" height="80" as="geometry"/>
                </mxCell>
                <mxCell id="imNkw7YES2fSMCj-qWhb-3" value="" style="endArrow=classic;html=1;rounded=0;entryX=0.741;entryY=0.952;entryDx=0;entryDy=0;entryPerimeter=0;" parent="1" target="imNkw7YES2fSMCj-qWhb-10" edge="1">
                    <mxGeometry width="50" height="50" relative="1" as="geometry">
                        <mxPoint x="780" y="380" as="sourcePoint"/>
                        <mxPoint x="690" y="370" as="targetPoint"/>
                    </mxGeometry>
                </mxCell>
                <mxCell id="imNkw7YES2fSMCj-qWhb-6" value="&lt;div&gt;Renseigne adresse Livraison&lt;/div&gt;" style="ellipse;whiteSpace=wrap;html=1;" parent="1" vertex="1">
                    <mxGeometry x="480" y="240" width="160" height="80" as="geometry"/>
                </mxCell>
                <mxCell id="imNkw7YES2fSMCj-qWhb-7" value="" style="endArrow=classic;html=1;rounded=0;" parent="1" source="imNkw7YES2fSMCj-qWhb-10" target="imNkw7YES2fSMCj-qWhb-6" edge="1">
                    <mxGeometry width="50" height="50" relative="1" as="geometry">
                        <mxPoint x="690" y="540" as="sourcePoint"/>
                        <mxPoint x="450" y="360" as="targetPoint"/>
                        <Array as="points"/>
                    </mxGeometry>
                </mxCell>
                <mxCell id="imNkw7YES2fSMCj-qWhb-8" value="&amp;lt;&amp;lt;include&amp;gt;&amp;gt;" style="endArrow=open;endSize=12;dashed=1;html=1;rounded=0;exitX=0.5;exitY=0;exitDx=0;exitDy=0;" parent="1" source="CQ0YHz5qeJ9onZeh1d_j-5" target="imNkw7YES2fSMCj-qWhb-6" edge="1">
                    <mxGeometry width="160" relative="1" as="geometry">
                        <mxPoint x="120" y="520" as="sourcePoint"/>
                        <mxPoint x="500" y="380" as="targetPoint"/>
                    </mxGeometry>
                </mxCell>
                <mxCell id="imNkw7YES2fSMCj-qWhb-9" value="&amp;lt;&amp;lt;include&amp;gt;&amp;gt;" style="endArrow=open;endSize=12;dashed=1;html=1;rounded=0;exitX=0.5;exitY=1;exitDx=0;exitDy=0;" parent="1" source="CQ0YHz5qeJ9onZeh1d_j-5" target="imNkw7YES2fSMCj-qWhb-2" edge="1">
                    <mxGeometry width="160" relative="1" as="geometry">
                        <mxPoint x="430.0000000000002" y="310" as="sourcePoint"/>
                        <mxPoint x="460.02000000000044" y="395" as="targetPoint"/>
                    </mxGeometry>
                </mxCell>
                <mxCell id="imNkw7YES2fSMCj-qWhb-10" value="Commande un plat" style="ellipse;whiteSpace=wrap;html=1;" parent="1" vertex="1">
                    <mxGeometry x="640" y="120" width="160" height="80" as="geometry"/>
                </mxCell>
                <mxCell id="imNkw7YES2fSMCj-qWhb-11" value="S'authentifier" style="ellipse;whiteSpace=wrap;html=1;" parent="1" vertex="1">
                    <mxGeometry x="240" y="120" width="160" height="80" as="geometry"/>
                </mxCell>
                <mxCell id="imNkw7YES2fSMCj-qWhb-13" value="&amp;lt;&amp;lt;include&amp;gt;&amp;gt;" style="endArrow=open;endSize=12;dashed=1;html=1;rounded=0;exitX=0.5;exitY=0;exitDx=0;exitDy=0;entryX=0.5;entryY=1;entryDx=0;entryDy=0;" parent="1" source="CQ0YHz5qeJ9onZeh1d_j-4" edge="1" target="imNkw7YES2fSMCj-qWhb-11">
                    <mxGeometry width="160" relative="1" as="geometry">
                        <mxPoint x="289.99999999999994" y="282.55" as="sourcePoint"/>
                        <mxPoint x="340.5340456065987" y="230.00432652321427" as="targetPoint"/>
                    </mxGeometry>
                </mxCell>
                <mxCell id="imNkw7YES2fSMCj-qWhb-14" value="&amp;lt;&amp;lt;include&amp;gt;&amp;gt;" style="endArrow=open;endSize=12;dashed=1;html=1;rounded=0;exitX=0;exitY=0.5;exitDx=0;exitDy=0;" parent="1" source="imNkw7YES2fSMCj-qWhb-10" edge="1">
                    <mxGeometry width="160" relative="1" as="geometry">
                        <mxPoint x="630" y="160" as="sourcePoint"/>
                        <mxPoint x="400" y="160" as="targetPoint"/>
                        <Array as="points"/>
                    </mxGeometry>
                </mxCell>
                <mxCell id="imNkw7YES2fSMCj-qWhb-15" value="" style="endArrow=classic;html=1;rounded=0;" parent="1" source="imNkw7YES2fSMCj-qWhb-2" edge="1">
                    <mxGeometry width="50" height="50" relative="1" as="geometry">
                        <mxPoint x="350" y="450" as="sourcePoint"/>
                        <mxPoint x="740" y="490" as="targetPoint"/>
                    </mxGeometry>
                </mxCell>
                <mxCell id="2" value="" style="endArrow=classic;html=1;entryX=0.027;entryY=0.684;entryDx=0;entryDy=0;entryPerimeter=0;" edge="1" parent="1" source="CQ0YHz5qeJ9onZeh1d_j-3" target="CQ0YHz5qeJ9onZeh1d_j-4">
                    <mxGeometry width="50" height="50" relative="1" as="geometry">
                        <mxPoint x="280" y="460" as="sourcePoint"/>
                        <mxPoint x="330" y="410" as="targetPoint"/>
                    </mxGeometry>
                </mxCell>
            </root>
        </mxGraphModel>
    </diagram>
</mxfile>